HIERARCHY
ROOT Hips
{
	OFFSET 0.000000 0.000000 0.000000 
	CHANNELS 6 Xposition Yposition Zposition Yrotation Zrotation Xrotation 
	JOINT Lumbar
	{
		OFFSET 0.000000 0.000000 0.000000 
		CHANNELS 3 Zrotation Xrotation Yrotation
		JOINT Neck
		{
			OFFSET 0.000000 0.445665 0.000000 
			CHANNELS 3 Zrotation Xrotation Yrotation
			End Site
			{
				OFFSET 0.000000 0.227535 0.000000 
			}
		}
		JOINT RightShoulder
		{
			OFFSET 0.019635 0.377685 0.194865 
			CHANNELS 3 Zrotation Xrotation Yrotation
			JOINT RightElbow
			{
				OFFSET 0.000000 -0.243375 0.000000 
				CHANNELS 2 Zrotation Yrotation
				JOINT RightWrist
				{
					OFFSET 0.000000 -0.264825 0.000000 
					CHANNELS 2 Zrotation Xrotation
					End Site
					{
						OFFSET 0.006600 -0.176220 0.000990 
					}
				}
			}
		}
		JOINT LeftShoulder
		{
			OFFSET 0.019635 0.377685 -0.194865 
			CHANNELS 3 Zrotation Xrotation Yrotation
			JOINT LeftElbow
			{
				OFFSET 0.000000 -0.243375 0.000000 
				CHANNELS 2 Zrotation Yrotation
				JOINT LeftWrist
				{
					OFFSET 0.000000 -0.264825 0.000000 
					CHANNELS 2 Zrotation Xrotation
					End Site
					{
						OFFSET 0.006600 -0.176220 -0.000990 
					}
				}
			}
		}
	}
	JOINT RightHip
	{
		OFFSET 0.052140 -0.069960 0.075570 
		CHANNELS 3 Zrotation Xrotation Yrotation
		JOINT RightKnee
		{
			OFFSET 0.000000 -0.402270 0.000000 
			CHANNELS 1 Zrotation
			JOINT RightAnkle
			{
				OFFSET 0.000000 -0.404085 0.000000 
				CHANNELS 3 Zrotation Xrotation Yrotation
				End Site
				{
					OFFSET 0.204105 -0.089430 0.008415 
				}
			}
		}
	}
	JOINT LeftHip
	{
		OFFSET 0.052140 -0.069960 -0.075570 
		CHANNELS 3 Zrotation Xrotation Yrotation
		JOINT LeftKnee
		{
			OFFSET 0.000000 -0.402270 0.000000 
			CHANNELS 1 Zrotation
			JOINT LeftAnkle
			{
				OFFSET 0.000000 -0.404085 0.000000 
				CHANNELS 3 Zrotation Xrotation Yrotation
				End Site
				{
					OFFSET 0.204105 -0.089430 -0.008415 
				}
			}
		}
	}
}
MOTION
Frames: 16
Frame Time: 0.02
1.4813 -0.01912 -0.68159 -777.44347 -34.04372 -3.17924 42.87243 -2.30071 -5.42847 -6.85957 3.5235 -2.11994 12.14328 -37.34035 4.39894 104.73753 108.70598 -32.4309 -6.96664 -13.69648 17.81635 -8.97801 121.44964 -98.43781 -22.39446 6.30352 49.58923 -13.89526 -12.82723 -39.3693 -7.66896 -0.88729 -2.72973 33.85491 -6.09586 16.082 -14.20333 -7.03081 1.77407 3.12299
1.48728 -0.01953 -0.67478 -777.87473 -34.23797 -3.138 42.91383 -2.36932 -5.44897 -6.94164 3.51079 -2.11994 12.26607 -37.303 4.4104 105.0564 104.65752 -31.74323 -6.36787 -13.73997 17.37608 -9.25761 121.52094 -96.76846 -21.51783 6.03891 50.73281 -13.20968 -12.81113 -36.28492 -7.72847 -1.09062 -2.83264 32.79764 -6.52196 15.23454 -12.85553 -7.08755 1.88112 3.17862
1.49309 -0.02017 -0.66744 -778.29469 -34.44543 -3.00178 43.00457 -2.47403 -5.39057 -7.05717 3.48496 -2.11994 12.38466 -37.29017 4.42478 105.4642 98.62682 -30.37026 -5.49066 -13.87782 16.93975 -9.57863 121.61566 -93.96698 -20.12949 5.58262 51.81124 -12.47035 -12.19569 -33.02878 -7.81502 -1.36239 -2.9698 31.68903 -7.0483 14.11924 -11.40586 -7.08671 2.01241 3.24058
1.49898 -0.02074 -0.66028 -778.71363 -34.65174 -2.90482 43.08038 -2.56336 -5.37151 -7.15619 3.46556 -2.11994 12.51227 -37.276 4.42665 105.8456 93.5369 -29.30986 -4.72962 -13.9777 16.50246 -9.87439 121.70506 -91.68567 -18.97998 5.19204 52.92529 -11.7783 -11.87847 -29.90783 -7.88534 -1.59718 -3.08827 30.6061 -7.52702 13.17198 -10.00219 -6.98699 2.13429 3.28856
1.50485 -0.0212 -0.65336 -779.16078 -34.84048 -2.82262 43.12628 -2.6489 -5.33435 -7.26058 3.44402 -2.11994 12.61287 -37.22078 4.47568 106.16835 88.29923 -28.26773 -4.00949 -14.05767 16.05332 -10.19915 121.77441 -89.3837 -17.80657 4.88853 54.01202 -10.98897 -11.45367 -26.5042 -7.97792 -1.85617 -3.21989 29.51496 -8.0179 12.01564 -8.5934 -7.39308 2.26805 3.38881
1.51071 -0.02192 -0.64581 -779.54361 -35.06658 -2.6883 43.24489 -2.75025 -5.31861 -7.36164 3.42422 -2.11994 12.76585 -37.25862 4.42712 106.63386 82.91222 -27.02147 -3.14434 -14.20131 15.634 -10.47318 121.88914 -86.86733 -16.56333 4.36461 55.13545 -10.38974 -11.10936 -23.66771 -8.02921 -2.08151 -3.33244 28.42822 -8.5042 11.24407 -7.17839 -6.75959 2.35991 3.37515
1.51654 -0.02331 -0.63684 -779.7776 -35.40811 -2.42742 43.56069 -2.89175 -5.36651 -7.44732 3.40857 -2.11994 13.08564 -37.52362 4.10923 107.47615 77.32624 -25.3103 -1.88109 -14.49689 15.28352 -10.58988 122.13645 -83.87711 -15.21586 3.21355 56.44303 -10.32835 -11.13928 -22.39981 -7.94992 -2.19396 -3.38187 27.36442 -8.97426 11.48921 -5.71153 -3.03509 2.54781 3.11091
1.52236 -0.02496 -0.62723 -779.94321 -35.78374 -2.11903 43.94656 -3.04667 -5.44137 -7.52835 3.39604 -2.11994 13.45401 -37.88481 3.69302 108.45829 71.70025 -23.42574 -0.49252 -14.8536 14.96602 -10.65468 122.42625 -80.73607 -13.82156 1.85845 57.77808 -10.45937 -11.26797 -21.72098 -7.82918 -2.27083 -3.41131 26.30704 -9.43176 12.14052 -4.25332 1.68811 2.66841 2.7268
1.52818 -0.0265 -0.6178 -780.12208 -36.1333 -1.83585 44.29422 -3.19231 -5.5144 -7.60996 3.38431 -2.11994 13.78637 -38.21816 3.32107 109.3735 66.26706 -21.66189 0.79496 -15.18232 14.64303 -10.74811 122.68765 -77.76721 -12.47213 0.64012 59.05839 -10.50379 -11.35016 -20.80422 -7.73286 -2.36617 -3.45126 25.24738 -9.88162 12.6945 -2.83017 5.80253 2.65616 2.34538
1.53401 -0.02802 -0.6088 -780.37251 -36.52773 -1.53229 44.66914 -3.35375 -5.54223 -7.69839 3.36188 -2.11994 14.17818 -38.48836 2.95035 110.30582 60.03784 -19.69886 2.27507 -15.51402 14.28106 -10.82344 122.98739 -74.32663 -11.00621 -0.76805 60.51628 -10.54664 -11.42574 -19.7566 -7.61356 -2.45422 -3.4864 24.18255 -10.39301 12.91898 -1.23827 10.58012 3.26734 2.15305
1.53981 -0.02962 -0.59875 -780.46187 -36.83692 -1.26333 45.00496 -3.48363 -5.66963 -7.77209 3.36373 -2.11994 14.4568 -38.90889 2.55452 111.23483 55.47086 -18.11691 3.3843 -15.85433 14.00668 -10.92144 123.21815 -71.84119 -9.77737 -1.83021 61.60969 -10.63431 -11.53698 -19.12187 -7.53253 -2.54805 -3.52635 23.13155 -10.76986 13.86914 -0.00197 14.20389 2.64823 1.57566
1.54554 -0.03152 -0.58616 -780.08859 -36.89936 -1.08313 45.20074 -3.53464 -6.08309 -7.79739 3.42222 -2.11994 14.4201 -39.75291 2.10761 112.11709 55.61636 -17.6448 3.40071 -16.18944 13.97853 -11.11269 123.23847 -72.08979 -9.227 -1.8563 61.70673 -10.84128 -11.80845 -19.5032 -7.56087 -2.66661 -3.58402 22.11245 -10.79509 17.26447 0.25458 14.47642 -2.10545 -0.36937
1.55124 -0.03347 -0.57252 -779.56234 -36.87506 -0.94307 45.35703 -3.55121 -6.59286 -7.80948 3.50666 -2.11994 14.26681 -40.73887 1.64081 112.99102 57.42576 -17.56296 3.04478 -16.53305 14.03515 -11.32479 123.18963 -73.29966 -8.91754 -1.53174 61.43275 -11.0795 -12.10139 -20.27715 -7.62974 -2.79169 -3.64699 21.11003 -10.68154 21.29043 0.14933 13.54083 -7.97451 -2.64503
1.55695 -0.03532 -0.55924 -779.12857 -36.89268 -0.79752 45.54131 -3.57566 -7.04746 -7.83332 3.5859 -2.11994 14.1601 -41.6387 1.18572 113.87097 58.40826 -17.29565 2.88348 -16.88174 14.0447 -11.51561 123.17851 -74.03556 -8.49166 -1.38712 61.3186 -11.27517 -12.32859 -20.85899 -7.68473 -2.91366 -3.70781 20.10097 -10.62023 24.65675 0.21383 13.10282 -12.8131 -4.53847
1.56269 -0.03748 -0.54639 -778.59448 -36.90198 -0.59742 45.68677 -3.63294 -7.55139 -7.83291 3.63837 -2.11994 14.07937 -42.63294 0.71213 114.74786 59.68318 -17.05521 2.62137 -17.1957 14.09114 -11.7553 123.14208 -74.92084 -8.09124 -1.16355 61.24447 -11.59532 -12.78689 -21.51829 -7.72109 -3.03581 -3.76738 19.08051 -10.60497 29.55478 0.27076 12.90626 -19.78165 -7.37634
1.56834 -0.039 -0.53243 -778.23516 -36.9063 -0.51984 45.90136 -3.61409 -7.97468 -7.87977 3.7515 -2.11994 13.91967 -43.4633 0.27841 115.62552 60.74937 -16.85492 2.47667 -17.58218 14.08084 -11.89782 123.14173 -75.72705 -7.69803 -1.01756 60.996 -11.66351 -12.77818 -22.10274 -7.80398 -3.15863 -3.83043 18.09723 -10.46009 31.47878 0.23861 11.92028 -22.68175 -8.37304
